HIERARCHY
ROOT Hips
{
 OFFSET 0.000000 0.000000 0.000000
 CHANNELS 6 Xposition Yposition Zposition Yrotation Xrotation Zrotation
 JOINT Chest
 {
  OFFSET 0.000000 9.585900 0.002600
  CHANNELS 3 Yrotation Xrotation Zrotation
  JOINT Chest2
  {
   OFFSET 0.000000 9.601200 -0.005300
   CHANNELS 3 Yrotation Xrotation Zrotation
   JOINT Chest3
   {
    OFFSET 0.000000 9.561800 0.000000
    CHANNELS 3 Yrotation Xrotation Zrotation
    JOINT Chest4
    {
     OFFSET 0.000000 9.552100 0.000000
     CHANNELS 3 Yrotation Xrotation Zrotation
     JOINT Neck
     {
      OFFSET 0.000000 14.453000 0.000000
      CHANNELS 3 Yrotation Xrotation Zrotation
      JOINT Head
      {
       OFFSET 0.000000 8.936500 -0.011300
       CHANNELS 3 Yrotation Xrotation Zrotation
       End Site
       {
        OFFSET 0.000000 17.073600 -0.006000
       }
      }
     }
     JOINT RightCollar
     {
      OFFSET -2.921100 9.558500 0.000000
      CHANNELS 3 Yrotation Xrotation Zrotation
      JOINT RightShoulder
      {
       OFFSET -13.519700 0.000000 0.000000
       CHANNELS 3 Yrotation Xrotation Zrotation
       JOINT RightElbow
       {
        OFFSET 0.000000 -29.696600 0.000000
        CHANNELS 3 Yrotation Xrotation Zrotation
        JOINT RightWrist
        {
         OFFSET 0.000000 -24.004700 0.000000
         CHANNELS 3 Yrotation Xrotation Zrotation
         End Site
         {
          OFFSET 0.000000 -17.728500 0.000000
         }
        }
       }
      }
     }
     JOINT LeftCollar
     {
      OFFSET 2.921100 9.558500 0.000000
      CHANNELS 3 Yrotation Xrotation Zrotation
      JOINT LeftShoulder
      {
       OFFSET 13.519700 0.000000 0.000000
       CHANNELS 3 Yrotation Xrotation Zrotation
       JOINT LeftElbow
       {
        OFFSET 0.000000 -29.696600 0.000000
        CHANNELS 3 Yrotation Xrotation Zrotation
        JOINT LeftWrist
        {
         OFFSET 0.000000 -24.004700 0.000000
         CHANNELS 3 Yrotation Xrotation Zrotation
         End Site
         {
          OFFSET 0.000000 -17.728500 0.000000
         }
        }
       }
      }
     }
    }
   }
  }
 }
 JOINT RightHip
 {
  OFFSET -7.771700 -0.012900 -0.001300
  CHANNELS 3 Yrotation Xrotation Zrotation
  JOINT RightKnee
  {
   OFFSET 0.000000 -40.869800 0.001200
   CHANNELS 3 Yrotation Xrotation Zrotation
   JOINT RightAnkle
   {
    OFFSET 0.000000 -39.717900 0.002100
    CHANNELS 3 Yrotation Xrotation Zrotation
    JOINT RightToe
    {
     OFFSET 0.000000 -4.965400 11.033500
     CHANNELS 3 Yrotation Xrotation Zrotation
     End Site
     {
      OFFSET 0.000000 -1.423100 5.872300
     }
    }
   }
  }
 }
 JOINT LeftHip
 {
  OFFSET 7.771700 -0.012900 -0.001300
  CHANNELS 3 Yrotation Xrotation Zrotation
  JOINT LeftKnee
  {
   OFFSET 0.000000 -40.869800 0.001200
   CHANNELS 3 Yrotation Xrotation Zrotation
   JOINT LeftAnkle
   {
    OFFSET 0.000000 -39.717900 0.002100
    CHANNELS 3 Yrotation Xrotation Zrotation
    JOINT LeftToe
    {
     OFFSET 0.000000 -4.965400 11.033500
     CHANNELS 3 Yrotation Xrotation Zrotation
     End Site
     {
      OFFSET 0.000000 -1.423100 5.872300
     }
    }
   }
  }
 }
}
MOTION
Frames: 11
Frame Time: 0.008333
0.000000 85.388000 0.000000 0.000000 -5.767877 0.000000 0.000000 11.653817 0.000000 0.000000 -5.885947 0.000000 0.000000 -0.000000 0.000000 0.000000 -0.000000 0.000000 0.000000 12.528835 0.000000 0.000000 0.711642 0.000000 0.000000 -0.000000 0.000000 0.000000 0.000000 -90.000000 0.000000 -2.309062 0.000000 0.000000 2.309062 0.000000 0.000000 -0.000000 0.000000 0.000000 -0.000000 90.000000 0.000000 -2.309062 0.000000 0.000000 2.309062 0.000000 0.000000 8.520406 0.000000 0.000000 1.905762 0.000000 -0.000000 -4.658285 0.000000 0.000000 -0.000000 0.000000 0.000000 8.520406 0.000000 0.000000 1.905762 0.000000 -0.000000 -4.658285 0.000000 0.000000 -0.000000 0.000000
-19.243039 61.118947 28.855145 177.058267 -12.459369 2.422681 -3.799683 11.002831 -0.248821 -0.263463 0.771262 0.028474 -0.481899 1.323344 0.041220 -3.417943 10.090099 0.097093 -0.159110 18.301066 -0.664867 0.016222 -6.457836 -0.672895 3.769873 5.384685 -2.250624 -4.478383 -13.307958 -5.521534 -67.053253 -79.487400 78.633675 -1.464367 1.184021 -25.026702 -6.829037 1.607298 -6.263294 19.141848 -6.362393 1.300111 57.303674 -87.607149 -72.507528 -9.815030 5.921696 -2.256138 -10.121764 -57.511197 -7.060031 -22.609963 72.544274 -18.722487 1.242890 -6.712494 -2.641155 0.137554 -0.354156 -0.011809 5.021392 -54.290344 -10.565226 29.130858 70.192413 27.507466 -20.125464 -13.231018 1.957691 0.167619 0.405126 0.027196
-19.231600 61.117213 28.863115 177.024634 -12.443249 2.401399 -3.824388 10.990838 -0.242623 -0.263511 0.772304 0.028573 -0.434829 1.322186 0.049227 -3.432697 10.093106 0.096028 -0.160051 18.310196 -0.656880 0.021741 -6.454625 -0.670761 3.788278 5.383131 -2.248333 -4.489108 -13.305168 -5.520329 -67.062662 -79.490796 78.662480 -1.465644 1.175085 -25.036981 -6.825364 1.616420 -6.257694 19.167268 -6.366169 1.291382 56.576732 -87.597049 -71.784153 -9.817642 5.904235 -2.249742 -10.265218 -57.528838 -6.916032 -22.544752 72.536256 -18.673527 1.258562 -6.698190 -2.679280 0.139633 -0.359828 -0.005846 4.972806 -54.310702 -10.506276 29.197854 70.184641 27.565740 -20.065060 -13.263031 1.939694 0.193693 0.420706 0.039389
-19.232941 61.117473 28.863626 176.940504 -12.471295 2.477604 -3.792490 11.020164 -0.315418 -0.263268 0.772658 0.028576 -0.416265 1.321173 0.050664 -3.479160 10.104043 0.089733 -0.127904 18.310493 -0.648628 0.044705 -6.462046 -0.684097 3.839839 5.373122 -2.247386 -4.493622 -13.306124 -5.519502 -67.093281 -79.494569 78.695726 -1.466344 1.171899 -25.044652 -6.781634 1.615714 -6.254997 19.189656 -6.343354 1.295085 56.705360 -87.596473 -71.918007 -9.814446 5.924596 -2.245446 -10.249228 -57.522661 -6.921527 -22.453287 72.535088 -18.618712 1.255082 -6.708922 -2.722211 0.148503 -0.344405 0.019276 5.032818 -54.288032 -10.535644 29.238699 70.183753 27.613329 -20.380747 -13.235931 1.966554 0.029347 0.393503 -0.002456
-19.230766 61.118082 28.861661 176.857463 -12.517412 2.539675 -3.742682 11.067480 -0.369271 -0.263178 0.772820 0.028584 -0.427869 1.324362 0.047815 -3.465095 10.102805 0.092612 -0.143580 18.319201 -0.638910 0.045473 -6.454979 -0.675658 3.815983 5.377692 -2.223257 -4.455271 -13.316676 -5.544747 -67.073425 -79.492937 78.675034 -1.463912 1.165708 -25.045552 -6.770382 1.617183 -6.255484 19.204481 -6.277583 1.308623 58.099725 -87.615355 -73.321752 -9.814336 6.009193 -2.247004 -10.220418 -57.492737 -6.927883 -22.391625 72.532999 -18.579109 1.244342 -6.718534 -2.764080 0.175584 -0.332411 0.032936 5.118983 -54.246753 -10.559780 29.182448 70.200491 27.613846 -20.784652 -13.214228 1.980420 -0.129180 0.369446 -0.043301
-19.214156 61.116130 28.868607 176.843198 -12.516042 2.502061 -3.744364 11.069236 -0.333575 -0.263180 0.773009 0.028591 -0.450867 1.325255 0.046699 -3.440814 10.103871 0.092682 -0.153113 18.327059 -0.629295 0.020862 -6.431969 -0.646759 3.818274 5.376524 -2.215198 -4.437059 -13.318463 -5.555312 -67.084756 -79.480589 78.664766 -1.451849 1.163713 -25.030333 -6.758259 1.628686 -6.255024 19.217631 -6.273180 1.304017 57.546024 -87.610926 -72.766590 -9.818762 6.016781 -2.241019 -10.401813 -57.493880 -6.756089 -22.308990 72.530976 -18.535317 1.276963 -6.706645 -2.779065 0.144720 -0.341709 0.027854 5.029352 -54.260872 -10.476587 29.260947 70.202914 27.687907 -20.622870 -13.249059 1.938886 -0.048657 0.377395 -0.032281
-19.190250 61.113014 28.879589 176.819816 -12.490241 2.424061 -3.741083 11.049244 -0.257326 -0.292104 0.773294 0.025795 -0.449737 1.326048 0.046983 -3.408966 10.106679 0.092867 -0.135176 18.328482 -0.625754 -0.005414 -6.416942 -0.617500 3.838810 5.374079 -2.210208 -4.427930 -13.318151 -5.561450 -67.096395 -79.470485 78.664118 -1.449254 1.162461 -25.035362 -6.740905 1.640935 -6.251746 19.236989 -6.269296 1.295458 56.955069 -87.604358 -72.172302 -9.824415 6.008688 -2.238438 -10.640262 -57.506632 -6.514532 -22.253433 72.518469 -18.479573 1.318649 -6.681576 -2.828826 0.128434 -0.359133 0.028023 4.897714 -54.301607 -10.331841 29.371867 70.203233 27.786994 -20.310197 -13.305000 1.879471 0.093440 0.396368 -0.004514
-19.173763 61.111248 28.885858 176.784462 -12.488212 2.395866 -3.761857 11.049982 -0.239317 -0.262272 0.773837 0.028738 -0.449321 1.326547 0.047173 -3.412722 10.109491 0.097913 -0.114968 18.329585 -0.627680 -0.024535 -6.408773 -0.594236 3.869338 5.371852 -2.216580 -4.430572 -13.316089 -5.563164 -67.110641 -79.464967 78.679156 -1.455122 1.154488 -25.047991 -6.727250 1.648812 -6.252163 19.268641 -6.242344 1.291973 56.946698 -87.607968 -72.159785 -9.824368 5.980585 -2.245412 -10.778374 -57.503171 -6.377698 -22.176634 72.510917 -18.407604 1.349196 -6.671998 -2.863996 0.114888 -0.363122 0.023124 4.845070 -54.314083 -10.252918 29.453259 70.203802 27.868632 -20.174385 -13.327524 1.848937 0.138004 0.395165 -0.000105
-19.164575 61.111097 28.886654 176.725741 -12.513449 2.418944 -3.742711 11.075466 -0.264108 -0.262081 0.774343 0.028884 -0.448978 1.327424 0.047307 -3.392351 10.111440 0.102163 -0.129122 18.335379 -0.614902 -0.019260 -6.409047 -0.591587 3.868013 5.371822 -2.207871 -4.418837 -13.323662 -5.572404 -67.075326 -79.457736 78.644925 -1.460858 1.151544 -25.055461 -6.747849 1.671175 -6.235838 19.311786 -6.221137 1.271969 56.568296 -87.610635 -71.773528 -9.822215 5.969306 -2.249724 -10.806610 -57.481350 -6.337548 -22.062511 72.511575 -18.323894 1.374888 -6.679558 -2.856506 0.091413 -0.351508 -0.005099 4.881074 -54.293148 -10.244968 29.517110 70.204167 27.941411 -20.167882 -13.315238 1.848437 0.196208 0.367273 -0.019457
-19.154397 61.110550 28.890294 176.672232 -12.518407 2.434867 -3.729803 11.081219 -0.283644 -0.261651 0.774832 0.029041 -0.448242 1.328154 0.047537 -3.410260 10.117548 0.101194 -0.104739 18.335074 -0.604064 0.003369 -6.412678 -0.605990 3.899870 5.364521 -2.198585 -4.403595 -13.326387 -5.580504 -67.045459 -79.447420 78.618541 -1.459777 1.139151 -25.069988 -6.709469 1.676885 -6.227804 19.345100 -6.194466 1.260027 56.287424 -87.611208 -71.496851 -9.828108 5.967361 -2.245426 -10.843947 -57.475885 -6.301890 -21.964179 72.506140 -18.213297 1.394943 -6.678539 -2.897424 0.094188 -0.344825 -0.014186 4.912331 -54.291448 -10.231683 29.566616 70.201947 27.995725 -20.160357 -13.298104 1.864689 0.096919 0.343682 -0.049844
-19.139191 61.109645 28.896596 176.651074 -12.506772 2.414200 -3.746266 11.071365 -0.271971 -0.260876 0.775043 0.029193 -0.436993 1.328510 0.048268 -3.417947 10.121325 0.102866 -0.124130 18.342225 -0.577423 0.033311 -6.415871 -0.618848 3.931041 5.360708 -2.198493 -4.411774 -13.337720 -5.570609 -66.931662 -79.439272 78.514820 -1.448384 1.131710 -25.076031 -6.678591 1.679012 -6.226254 19.361014 -6.164975 1.254169 56.207914 -87.614198 -71.414872 -9.831173 5.974062 -2.236804 -10.930610 -57.479787 -6.226547 -21.930322 72.497786 -18.149704 1.417581 -6.669454 -2.932481 0.083003 -0.349353 -0.010615 4.887628 -54.306016 -10.187437 29.605021 70.198926 28.028233 -19.996902 -13.298552 1.863583 0.114303 0.345243 -0.035325
